<svg height="512" viewBox="0 0 64 64" width="512" xmlns="http://www.w3.org/2000/svg"><g fill="#ffd422"><path d="m61.16 30-3.81 2.76 1.45 4.48-3.8-2.77-3.8 2.77 1.45-4.48-3.81-2.76h4.71l1.45-4.47 1.45 4.47z"/><path d="m59.16 14-3.81 2.76 1.45 4.48-3.8-2.77-3.8 2.77 1.45-4.48-3.81-2.76h4.71l1.45-4.47 1.45 4.47z"/><path d="m59.16 48-3.81 2.76 1.45 4.48-3.8-2.77-3.8 2.77 1.45-4.48-3.81-2.76h4.71l1.45-4.47 1.45 4.47z"/></g><path d="m32 20 2-2a5.875 5.875 0 0 1 1.93.32l8.76-14.33a2 2 0 0 1 3.73 1.01 1.967 1.967 0 0 1 -.27.99l-9.15 15.01-1 11h-12l-1-11-9.15-15.01a1.967 1.967 0 0 1 -.27-.99 2 2 0 0 1 3.73-1.01l8.76 14.33a5.875 5.875 0 0 1 1.93-.32z" fill="#3d9ae2"/><path d="m40 59v2h-6l-2-1v-3h6a2.006 2.006 0 0 1 2 2z" fill="#754c29"/><path d="m32 57h-5l-1-25h12l-1 25z" fill="#787680"/><path d="m37 8v2h-1.17a2.006 2.006 0 0 1 -1.42-.59l-1.41-1.41-.83.83a4 4 0 0 1 -2.83 1.17h-2.34v-2a5 5 0 0 1 10 0z" fill="#787680"/><path d="m36 10v2a3.994 3.994 0 0 1 -6 3.46 4.225 4.225 0 0 1 -.83-.63 4.025 4.025 0 0 1 -1.17-2.83v-2h1.34a4 4 0 0 0 2.83-1.17l.83-.83 1.41 1.41a2.006 2.006 0 0 0 1.42.59z" fill="#ffc477"/><path d="m34 15.46v2.54l-2 2-2-2v-2.54a3.974 3.974 0 0 0 4 0z" fill="#ffb655"/><path d="m32 57v3l-2 1h-6v-2a2.006 2.006 0 0 1 2-2z" fill="#8b5e3c"/><path d="m17.15 14-3.8 2.76 1.45 4.48-3.8-2.77-3.81 2.77 1.46-4.48-3.81-2.76h4.7l1.46-4.47 1.45 4.47z" fill="#ffd422"/><path d="m17.15 48-3.8 2.76 1.45 4.48-3.8-2.77-3.81 2.77 1.46-4.48-3.81-2.76h4.7l1.46-4.47 1.45 4.47z" fill="#ffd422"/><path d="m15.15 30-3.8 2.76 1.45 4.48-3.8-2.77-3.81 2.77 1.46-4.48-3.81-2.76h4.7l1.46-4.47 1.45 4.47z" fill="#ffd422"/><path d="m34 15.46v1a3.974 3.974 0 0 1 -4 0v-1a3.974 3.974 0 0 0 4 0z" fill="#ffa733"/><path d="m38.04 56 .96-23.91.979-10.768 9.034-14.828a2.978 2.978 0 0 0 .405-1.494 3 3 0 0 0 -5.583-1.53l-8.365 13.685c-.156-.033-.312-.061-.47-.084v-1.1a4.977 4.977 0 0 0 2-3.971v-1a1 1 0 0 0 1-1v-2a6 6 0 0 0 -12 0v2a1 1 0 0 0 1 1v1a4.977 4.977 0 0 0 2 3.974v1.1c-.158.023-.314.051-.47.084l-8.356-13.671a3 3 0 1 0 -5.18 3.022l9.031 14.813.975 10.718.96 23.96a3 3 0 0 0 -2.96 3v2a1 1 0 0 0 1 1h6a1 1 0 0 0 .447-.1l1.553-.782 1.553.777a1 1 0 0 0 .447.105h6a1 1 0 0 0 1-1v-2a3 3 0 0 0 -2.96-3zm-7.04-19v19h-3.039l-.921-23h9.919l-.92 23h-3.039v-19zm-3-29a4 4 0 0 1 8 0v1h-.171a1 1 0 0 1 -.708-.293l-1.414-1.414a1 1 0 0 0 -1.414 0l-.829.829a3.02 3.02 0 0 1 -2.121.878h-1.343zm1.343 3a4.966 4.966 0 0 0 3.535-1.464l.122-.122.707.707a2.96 2.96 0 0 0 1.293.749v1.13a3 3 0 0 1 -6 0v-1zm2.657 6a5 5 0 0 0 1-.1v.687l-1 1-1-1v-.687a5 5 0 0 0 1 .1zm-15.287-11.513a.975.975 0 0 1 -.135-.487 1 1 0 0 1 1.877-.488l8.762 14.331a1 1 0 0 0 1.178.425 4.805 4.805 0 0 1 1.222-.235l1.383 1.381v7.586h2v-7.586l1.383-1.383a4.805 4.805 0 0 1 1.222.235 1 1 0 0 0 1.178-.425l8.771-14.348a1 1 0 0 1 1.864.507.949.949 0 0 1 -.124.47l-9.148 15.009a1 1 0 0 0 -.146.431l-.912 10.09h-10.175l-.913-10.09a1 1 0 0 0 -.142-.431zm13.051 54.513h-4.764v-1a1 1 0 0 1 1-1h5v1.382zm9.236 0h-4.764l-1.236-.618v-1.382h5a1 1 0 0 1 1 1z"/><path d="m62.106 29.691a1 1 0 0 0 -.951-.691h-3.975l-1.229-3.781a1 1 0 0 0 -1.9 0l-1.231 3.781h-3.975a1 1 0 0 0 -.588 1.809l3.216 2.337-1.228 3.781a1 1 0 0 0 1.539 1.118l3.216-2.337 3.216 2.337a1 1 0 0 0 1.539-1.118l-1.228-3.781 3.216-2.337a1 1 0 0 0 .363-1.118zm-5.706 3.382.5 1.545-1.314-.955a1 1 0 0 0 -1.176 0l-1.314.955.5-1.545a1 1 0 0 0 -.363-1.118l-1.311-.955h1.625a1 1 0 0 0 .951-.691l.5-1.545.5 1.545a1 1 0 0 0 .951.691h1.625l-1.315.955a1 1 0 0 0 -.359 1.118z"/><path d="m45.894 13.691a1 1 0 0 0 .363 1.118l3.216 2.337-1.228 3.781a1 1 0 0 0 1.539 1.118l3.216-2.337 3.216 2.337a1 1 0 0 0 1.539-1.118l-1.228-3.781 3.216-2.337a1 1 0 0 0 -.588-1.809h-3.975l-1.229-3.781a1 1 0 0 0 -1.9 0l-1.231 3.781h-3.975a1 1 0 0 0 -.951.691zm5.653 1.309a1 1 0 0 0 .951-.691l.5-1.545.5 1.545a1 1 0 0 0 .951.691h1.625l-1.315.955a1 1 0 0 0 -.363 1.118l.5 1.545-1.314-.955a1 1 0 0 0 -1.176 0l-1.314.955.5-1.545a1 1 0 0 0 -.363-1.118l-1.307-.955z"/><path d="m59.155 47h-3.975l-1.229-3.781a1 1 0 0 0 -1.9 0l-1.231 3.781h-3.975a1 1 0 0 0 -.588 1.809l3.216 2.337-1.228 3.781a1 1 0 0 0 1.539 1.118l3.216-2.337 3.216 2.337a1 1 0 0 0 1.539-1.118l-1.228-3.781 3.216-2.337a1 1 0 0 0 -.588-1.809zm-4.755 4.073.5 1.545-1.314-.955a1 1 0 0 0 -1.176 0l-1.314.955.5-1.545a1 1 0 0 0 -.363-1.118l-1.311-.955h1.625a1 1 0 0 0 .951-.691l.5-1.545.5 1.545a1 1 0 0 0 .951.691h1.625l-1.315.955a1 1 0 0 0 -.359 1.118z"/><path d="m4.241 36.927a1 1 0 0 0 1.539 1.118l3.22-2.337 3.216 2.337a1 1 0 0 0 1.539-1.118l-1.229-3.781 3.217-2.337a1 1 0 0 0 -.591-1.809h-3.976l-1.228-3.781a1 1 0 0 0 -1.9 0l-1.231 3.781h-3.976a1 1 0 0 0 -.588 1.809l3.217 2.337zm3.302-5.927a1 1 0 0 0 .952-.691l.505-1.545.5 1.545a1 1 0 0 0 .95.691h1.624l-1.314.955a1 1 0 0 0 -.364 1.118l.5 1.545-1.314-.955a1 1 0 0 0 -1.175 0l-1.307.955.5-1.545a1 1 0 0 0 -.364-1.118l-1.317-.955z"/><path d="m17.152 13h-3.976l-1.228-3.781a1 1 0 0 0 -1.9 0l-1.231 3.781h-3.976a1 1 0 0 0 -.588 1.809l3.217 2.337-1.229 3.781a1 1 0 0 0 1.539 1.118l3.22-2.337 3.216 2.337a1 1 0 0 0 1.539-1.118l-1.229-3.781 3.217-2.337a1 1 0 0 0 -.591-1.809zm-4.752 4.073.5 1.545-1.314-.955a1 1 0 0 0 -1.175 0l-1.311.955.5-1.545a1 1 0 0 0 -.364-1.118l-1.317-.955h1.624a1 1 0 0 0 .952-.691l.5-1.545.5 1.545a1 1 0 0 0 .955.691h1.624l-1.314.955a1 1 0 0 0 -.36 1.118z"/><path d="m17.152 47h-3.976l-1.228-3.781a1 1 0 0 0 -1.9 0l-1.231 3.781h-3.976a1 1 0 0 0 -.588 1.809l3.217 2.337-1.229 3.781a1 1 0 0 0 1.539 1.118l3.22-2.337 3.216 2.337a1 1 0 0 0 1.539-1.118l-1.229-3.781 3.217-2.337a1 1 0 0 0 -.591-1.809zm-4.752 4.073.5 1.545-1.314-.955a1 1 0 0 0 -1.175 0l-1.311.955.5-1.545a1 1 0 0 0 -.364-1.118l-1.317-.955h1.624a1 1 0 0 0 .952-.691l.5-1.545.5 1.545a1 1 0 0 0 .955.691h1.624l-1.314.955a1 1 0 0 0 -.36 1.118z"/></svg>